# xmcd
#
# Track frame offsets: 
#        150
#        17335
#        30950
#        45034
#        69243
#        87374
#        106100
#        123045
#        139702
#        161459
#        177647
#        199135
#        228311
#
# Disc length: 3220 seconds
#
# Revision: 7
# Processed by: cddbd v1.5.2PL0 Copyright (c) Steve Scherf et al.
# Submitted via: ExactAudioCopy v0.95b2
#
DISCID=8f0c920d
DTITLE=Jimmie Dale Gilmore - One Endless Night
DYEAR=2000
DGENRE=Country
TTITLE0=One Endless Night
TTITLE1=Banks Of The Guadalupe
TTITLE2=No Lonesome Tune
TTITLE3=Goodbye Old Missoula
TTITLE4=Georgia Rose
TTITLE5=Your Love Is My Rest
TTITLE6=Blue Shadows
TTITLE7=Defying Gravity
TTITLE8=Ripple
TTITLE9=Ramblin' Man
TTITLE10=Darcy Farrow
TTITLE11=Mack The Knife
TTITLE12=DFW
EXTD=
EXTT0=
EXTT1=
EXTT2=
EXTT3=
EXTT4=
EXTT5=
EXTT6=
EXTT7=
EXTT8=
EXTT9=
EXTT10=
EXTT11=
EXTT12=(This song does not appear on the CD sleeve.]\n
PLAYORDER=
